<svg width="238" height="77" viewBox="0 0 238 77" fill="none" xmlns="http://www.w3.org/2000/svg">
<g clip-path="url(#clip0_67_1255)">
<path d="M219.047 -0.00013122H18.9635C18.2342 -0.00013122 17.5136 -0.00013122 16.7862 0.00371878C16.1773 0.00756878 15.5733 0.018753 14.9585 0.0281663C13.623 0.0433773 12.2906 0.157096 10.973 0.368333C9.65716 0.584169 8.38257 0.991082 7.1923 1.57531C6.0035 2.16448 4.91725 2.93004 3.97297 3.84423C3.02373 4.75585 2.23247 5.80955 1.62961 6.96483C1.02508 8.1178 0.6059 9.35333 0.386543 10.6287C0.165101 11.9025 0.0459404 13.191 0.0301319 14.4826C0.0116749 15.0728 0.00972573 15.6649 0 16.2552V60.7502C0.00972573 61.3479 0.0116749 61.9269 0.0301319 62.5248C0.0459452 63.8164 0.165105 65.1048 0.386543 66.3785C0.605294 67.6546 1.0245 68.8909 1.62961 70.0443C2.23219 71.1958 3.02357 72.2452 3.97297 73.1518C4.91367 74.07 6.00062 74.8361 7.1923 75.4208C8.38256 76.0066 9.65701 76.4159 10.973 76.6351C12.2908 76.8446 13.6231 76.9584 14.9585 76.9754C15.5733 76.9885 16.1773 76.996 16.7862 76.996C17.5136 76.9999 18.2342 76.9999 18.9635 76.9999H219.047C219.762 76.9999 220.488 76.9999 221.203 76.996C221.809 76.996 222.431 76.9885 223.037 76.9754C224.37 76.9593 225.699 76.8455 227.015 76.6351C228.335 76.4144 229.614 76.0051 230.81 75.4208C232 74.8358 233.086 74.0697 234.026 73.1518C234.973 72.2417 235.766 71.193 236.376 70.0443C236.977 68.89 237.392 67.6539 237.608 66.3785C237.829 65.1046 237.953 63.8165 237.977 62.5248C237.984 61.9269 237.984 61.3479 237.984 60.7502C238 60.0508 238 59.3553 238 58.6446V18.3569C238 17.652 238 16.9527 237.984 16.2552C237.984 15.6649 237.984 15.0728 237.977 14.4825C237.953 13.1908 237.829 11.9026 237.608 10.6286C237.391 9.35399 236.976 8.11856 236.376 6.96475C235.149 4.64912 233.202 2.76422 230.81 1.57513C229.614 0.992336 228.335 0.585532 227.015 0.36816C225.7 0.155992 224.37 0.0422337 223.037 0.0278968C222.431 0.0185028 221.809 0.00722228 221.203 0.00346853C220.488 -0.00038147 219.762 -0.00038147 219.047 -0.00038147V-0.00013122Z" fill="#636362"/>
<path d="M16.7959 75.3156C16.19 75.3156 15.5986 75.3081 14.9974 75.295C13.7519 75.2793 12.5093 75.1744 11.2799 74.9811C10.1334 74.79 9.02286 74.4345 7.98476 73.9264C6.95618 73.4224 6.01804 72.7617 5.20626 71.9694C4.38274 71.1865 3.69712 70.2784 3.17657 69.2811C2.65029 68.2774 2.28607 67.2016 2.0966 66.091C1.89199 64.8978 1.78129 63.6912 1.76545 62.4817C1.75284 62.0757 1.73633 60.7239 1.73633 60.7239V16.2554C1.73633 16.2554 1.75391 14.9244 1.76555 14.5334C1.78071 13.3258 1.89077 12.1211 2.09477 10.9296C2.28459 9.81606 2.64909 8.7371 3.17566 7.73009C3.69429 6.73355 4.37611 5.82479 5.19467 5.03904C6.01231 4.24583 6.95346 3.58167 7.98379 3.07078C9.0195 2.56428 10.128 2.21131 11.2721 2.0237C12.5056 1.82844 13.7525 1.72287 15.0023 1.70788L16.7969 1.68438H221.193L223.009 1.70883C224.248 1.72307 225.483 1.8277 226.706 2.02181C227.861 2.21178 228.981 2.56721 230.029 3.07642C232.093 4.106 233.773 5.73489 234.832 7.73479C235.35 8.73484 235.709 9.80501 235.897 10.909C236.103 12.1102 236.219 13.3244 236.242 14.5418C236.248 15.087 236.248 15.6726 236.248 16.2554C236.264 16.9772 236.264 17.6643 236.264 18.3571V58.6447C236.264 59.3441 236.264 60.0265 236.248 60.7145C236.248 61.3405 236.248 61.914 236.24 62.5042C236.217 63.6999 236.103 64.8925 235.9 66.0722C235.715 67.1907 235.353 68.275 234.826 69.2869C234.302 70.2733 233.62 71.1735 232.806 71.9544C231.994 72.7509 231.054 73.4156 230.023 73.9227C228.979 74.4347 227.86 74.7915 226.706 74.9811C225.476 75.1754 224.234 75.2804 222.988 75.295C222.405 75.3081 221.795 75.3156 221.203 75.3156L219.047 75.3195L16.7959 75.3156Z" fill="black"/>
<path d="M49.2624 39.0788C49.2838 37.4721 49.7248 35.8967 50.5442 34.4992C51.3637 33.1018 52.5351 31.9277 53.9494 31.0861C53.0509 29.8442 51.8656 28.8221 50.4877 28.1011C49.1097 27.3801 47.577 26.98 46.0114 26.9326C42.6715 26.5933 39.4337 28.8669 37.7318 28.8669C35.9969 28.8669 33.3765 26.9662 30.5548 27.0224C28.7297 27.0795 26.9509 27.5932 25.3918 28.5135C23.8328 29.4337 22.5466 30.7292 21.6586 32.2736C17.8121 38.7193 20.6813 48.1923 24.3659 53.4025C26.2094 55.9538 28.364 58.8037 31.1831 58.7026C33.9419 58.5919 34.9722 57 38.3022 57C41.6013 57 42.568 58.7026 45.4443 58.6384C48.4046 58.5919 50.2697 56.0758 52.0485 53.5003C53.3731 51.6824 54.3923 49.6732 55.0685 47.5472C53.3487 46.8432 51.881 45.6647 50.8486 44.1588C49.8161 42.6529 49.2644 40.8861 49.2624 39.0788Z" fill="#EFEFEF"/>
<path d="M43.8301 23.506C45.4442 21.6306 46.2394 19.2202 46.0468 16.7865C43.5809 17.0372 41.3031 18.1779 39.6672 19.9813C38.8674 20.8623 38.2548 21.8872 37.8645 22.9975C37.4742 24.1078 37.3138 25.2816 37.3925 26.4519C38.6259 26.4642 39.8461 26.2055 40.9612 25.6952C42.0763 25.1849 43.0572 24.4364 43.8301 23.506Z" fill="#EFEFEF"/>
<path d="M84.1353 52.2438H74.721L72.4602 58.705H68.4727L77.3897 34.8003H81.5326L90.4496 58.705H86.3941L84.1353 52.2438ZM75.696 49.2623H83.1584L79.4797 38.7763H79.3767L75.696 49.2623Z" fill="#EFEFEF"/>
<path d="M109.708 49.9917C109.708 55.4077 106.713 58.8873 102.193 58.8873C101.049 58.9453 99.9099 58.69 98.9079 58.1508C97.9059 57.6115 97.081 56.81 96.5278 55.8381H96.4423V64.4706H92.7461V41.2766H96.3238V44.1754H96.3918C96.9705 43.2081 97.8093 42.4108 98.8189 41.8683C99.8285 41.3257 100.971 41.0582 102.125 41.0942C106.696 41.0943 109.708 44.5908 109.708 49.9917ZM105.909 49.9917C105.909 46.4632 104.025 44.1434 101.15 44.1434C98.3263 44.1434 96.4268 46.5121 96.4268 49.9917C96.4268 53.5034 98.3263 55.8551 101.15 55.8551C104.025 55.8551 105.909 53.5522 105.909 49.9917Z" fill="#EFEFEF"/>
<path d="M129.526 49.9917C129.526 55.4077 126.531 58.8873 122.012 58.8873C120.867 58.9453 119.728 58.69 118.726 58.1508C117.724 57.6115 116.899 56.81 116.346 55.8381H116.261V64.4706H112.564V41.2766H116.142V44.1754H116.21C116.789 43.2081 117.628 42.4108 118.637 41.8683C119.647 41.3257 120.79 41.0582 121.944 41.0943C126.514 41.0943 129.526 44.5908 129.526 49.9917ZM125.727 49.9917C125.727 46.4632 123.843 44.1434 120.969 44.1434C118.145 44.1434 116.245 46.5121 116.245 49.9917C116.245 53.5034 118.145 55.8551 120.969 55.8551C123.843 55.8551 125.727 53.5522 125.727 49.9917H125.727Z" fill="#EFEFEF"/>
<path d="M142.625 52.0446C142.899 54.4151 145.279 55.9716 148.53 55.9716C151.645 55.9716 153.887 54.415 153.887 52.2776C153.887 50.4221 152.535 49.3111 149.334 48.5498L146.133 47.8035C141.598 46.7432 139.493 44.6904 139.493 41.3592C139.493 37.2347 143.206 34.4018 148.479 34.4018C153.698 34.4018 157.276 37.2347 157.397 41.3592H153.665C153.442 38.9736 151.405 37.5337 148.427 37.5337C145.449 37.5337 143.412 38.9906 143.412 41.1111C143.412 42.8011 144.713 43.7955 147.897 44.5568L150.618 45.2035C155.685 46.3634 157.791 48.3336 157.791 51.8301C157.791 56.3023 154.11 59.1034 148.256 59.1034C142.779 59.1034 139.081 56.3681 138.842 52.0444L142.625 52.0446Z" fill="#EFEFEF"/>
<path d="M165.767 37.1521V41.2766H169.192V44.1096H165.767V53.7177C165.767 55.2103 166.453 55.9058 167.958 55.9058C168.365 55.899 168.771 55.8713 169.174 55.8231V58.6391C168.497 58.7615 167.81 58.8169 167.121 58.8046C163.476 58.8046 162.054 57.4792 162.054 54.0992V44.1096H159.436V41.2766H162.054V37.1521H165.767Z" fill="#EFEFEF"/>
<path d="M171.176 49.9917C171.176 44.5081 174.513 41.0623 179.716 41.0623C184.937 41.0623 188.258 44.508 188.258 49.9917C188.258 55.4904 184.954 58.9212 179.716 58.9212C174.48 58.9212 171.176 55.4904 171.176 49.9917ZM184.492 49.9917C184.492 46.2301 182.711 44.01 179.716 44.01C176.721 44.01 174.942 46.247 174.942 49.9917C174.942 53.7684 176.721 55.9716 179.716 55.9716C182.711 55.9716 184.492 53.7684 184.492 49.9917H184.492Z" fill="#EFEFEF"/>
<path d="M191.305 41.2766H194.83V44.243H194.915C195.154 43.3165 195.715 42.4978 196.504 41.9243C197.292 41.3509 198.261 41.0578 199.247 41.0942C199.673 41.0928 200.097 41.1375 200.513 41.2277V44.5739C199.975 44.4148 199.414 44.3418 198.852 44.3577C198.315 44.3366 197.78 44.4283 197.283 44.6263C196.786 44.8244 196.34 45.1242 195.974 45.5051C195.608 45.886 195.331 46.3391 195.163 46.8332C194.996 47.3273 194.94 47.8507 195.001 48.3675V58.705H191.305L191.305 41.2766Z" fill="#EFEFEF"/>
<path d="M217.554 53.5861C217.057 56.7499 213.873 58.9212 209.8 58.9212C204.562 58.9212 201.311 55.5242 201.311 50.0744C201.311 44.6077 204.579 41.0623 209.645 41.0623C214.627 41.0623 217.76 44.3746 217.76 49.659V50.8847H205.042V51.1008C204.983 51.7423 205.066 52.3884 205.285 52.9964C205.504 53.6044 205.855 54.1603 206.313 54.6272C206.771 55.0941 207.326 55.4613 207.942 55.7045C208.558 55.9476 209.221 56.0611 209.886 56.0374C210.759 56.1166 211.636 55.9208 212.385 55.4792C213.134 55.0375 213.716 54.3735 214.044 53.586L217.554 53.5861ZM205.059 48.3844H214.062C214.095 47.8077 214.005 47.2306 213.796 46.6892C213.588 46.1479 213.267 45.6541 212.852 45.2387C212.437 44.8234 211.938 44.4955 211.386 44.2756C210.834 44.0557 210.242 43.9487 209.645 43.9611C209.043 43.9576 208.446 44.0695 207.889 44.2904C207.332 44.5113 206.826 44.8367 206.4 45.248C205.973 45.6592 205.635 46.1481 205.405 46.6864C205.175 47.2248 205.058 47.8019 205.059 48.3844V48.3844Z" fill="#EFEFEF"/>
<path d="M75.2319 16.8072C76.0068 16.7534 76.7844 16.8667 77.5086 17.1389C78.2328 17.4112 78.8855 17.8356 79.4197 18.3816C79.9539 18.9276 80.3562 19.5815 80.5977 20.2962C80.8391 21.0109 80.9137 21.7685 80.816 22.5145C80.816 26.184 78.7669 28.2933 75.2319 28.2933H70.9453V16.8072H75.2319ZM72.7885 26.669H75.026C75.5798 26.701 76.1339 26.6131 76.6481 26.4117C77.1623 26.2104 77.6237 25.9005 77.9985 25.5048C78.3734 25.1091 78.6525 24.6375 78.8153 24.1242C78.9781 23.611 79.0206 23.0691 78.9397 22.5379C79.0147 22.0088 78.9679 21.4703 78.8026 20.9608C78.6373 20.4513 78.3576 19.9836 77.9835 19.591C77.6095 19.1984 77.1504 18.8908 76.6391 18.6901C76.1278 18.4895 75.5769 18.4008 75.026 18.4304H72.7885V26.669Z" fill="#EFEFEF"/>
<path d="M82.8989 23.9554C82.8426 23.3857 82.9099 22.811 83.0966 22.268C83.2832 21.725 83.585 21.2258 83.9827 20.8023C84.3803 20.3788 84.8651 20.0405 85.4058 19.809C85.9464 19.5774 86.5311 19.4578 87.1224 19.4578C87.7136 19.4578 88.2983 19.5774 88.839 19.809C89.3797 20.0405 89.8644 20.3788 90.2621 20.8023C90.6598 21.2258 90.9616 21.725 91.1482 22.268C91.3349 22.811 91.4022 23.3857 91.3459 23.9554C91.4033 24.5256 91.3367 25.1011 91.1506 25.645C90.9644 26.1888 90.6628 26.689 90.265 27.1133C89.8673 27.5376 89.3822 27.8766 88.841 28.1087C88.2997 28.3407 87.7143 28.4606 87.1224 28.4606C86.5304 28.4606 85.945 28.3407 85.4038 28.1087C84.8626 27.8766 84.3775 27.5376 83.9797 27.1133C83.582 26.689 83.2803 26.1888 83.0942 25.645C82.908 25.1011 82.8415 24.5256 82.8989 23.9554ZM89.5279 23.9554C89.5279 22.0764 88.6558 20.9776 87.1253 20.9776C85.589 20.9776 84.7247 22.0764 84.7247 23.9554C84.7247 25.8494 85.589 26.9397 87.1253 26.9397C88.6558 26.9397 89.5279 25.8418 89.5279 23.9554H89.5279Z" fill="#EFEFEF"/>
<path d="M102.573 28.2932H100.74L98.8889 21.9091H98.749L96.9058 28.2932H95.0897L92.6211 19.625H94.4138L96.0182 26.2393H96.1502L97.9915 19.625H99.6871L101.528 26.2393H101.668L103.265 19.625H105.032L102.573 28.2932Z" fill="#EFEFEF"/>
<path d="M107.109 19.625H108.811V21.002H108.943C109.167 20.5075 109.545 20.0929 110.024 19.816C110.503 19.5392 111.059 19.414 111.615 19.4577C112.051 19.426 112.489 19.4896 112.896 19.6438C113.303 19.798 113.669 20.0388 113.966 20.3484C114.264 20.658 114.486 21.0285 114.616 21.4324C114.745 21.8363 114.779 22.2633 114.715 22.6817V28.2931H112.948V23.1113C112.948 21.7183 112.322 21.0255 111.015 21.0255C110.719 21.0122 110.424 21.0609 110.15 21.1684C109.875 21.2759 109.628 21.4396 109.425 21.6482C109.221 21.8568 109.067 22.1055 108.973 22.3772C108.878 22.6489 108.846 22.9371 108.877 23.2222V28.2932H107.109L107.109 19.625Z" fill="#EFEFEF"/>
<path d="M117.531 16.2412H119.299V28.2931H117.531V16.2412Z" fill="#EFEFEF"/>
<path d="M121.756 23.9554C121.7 23.3857 121.767 22.8109 121.954 22.2679C122.141 21.7249 122.443 21.2256 122.84 20.8022C123.238 20.3787 123.723 20.0403 124.264 19.8088C124.804 19.5773 125.389 19.4577 125.98 19.4577C126.572 19.4577 127.156 19.5773 127.697 19.8088C128.238 20.0403 128.722 20.3787 129.12 20.8022C129.518 21.2256 129.82 21.7249 130.006 22.2679C130.193 22.8109 130.26 23.3857 130.204 23.9554C130.262 24.5256 130.195 25.1012 130.009 25.645C129.823 26.1889 129.521 26.689 129.123 27.1133C128.725 27.5376 128.24 27.8766 127.699 28.1086C127.158 28.3407 126.572 28.4605 125.98 28.4605C125.388 28.4605 124.803 28.3407 124.262 28.1086C123.72 27.8766 123.235 27.5376 122.837 27.1133C122.44 26.689 122.138 26.1889 121.952 25.645C121.766 25.1012 121.699 24.5256 121.756 23.9554ZM128.385 23.9554C128.385 22.0764 127.513 20.9776 125.983 20.9776C124.446 20.9776 123.582 22.0764 123.582 23.9554C123.582 25.8494 124.446 26.9397 125.983 26.9397C127.513 26.9397 128.385 25.8418 128.385 23.9554H128.385Z" fill="#EFEFEF"/>
<path d="M132.064 25.8418C132.064 24.2815 133.265 23.382 135.395 23.2542L137.821 23.1188V22.3706C137.821 21.4551 137.196 20.9382 135.988 20.9382C135.001 20.9382 134.318 21.2888 134.121 21.9016H132.41C132.591 20.4127 134.038 19.4577 136.069 19.4577C138.315 19.4577 139.581 20.5396 139.581 22.3706V28.2932H137.88V27.075H137.74C137.456 27.512 137.057 27.8682 136.585 28.1073C136.112 28.3464 135.582 28.4598 135.05 28.436C134.674 28.4739 134.294 28.435 133.934 28.322C133.575 28.209 133.244 28.0244 132.962 27.78C132.681 27.5356 132.456 27.2368 132.301 26.903C132.147 26.5692 132.066 26.2077 132.064 25.8418ZM137.821 25.1011V24.3765L135.634 24.5118C134.401 24.5917 133.842 24.9977 133.842 25.7619C133.842 26.5421 134.541 26.996 135.502 26.996C135.784 27.0237 136.069 26.9961 136.339 26.9151C136.61 26.8341 136.861 26.7012 137.077 26.5244C137.293 26.3476 137.471 26.1305 137.599 25.886C137.726 25.6415 137.802 25.3746 137.821 25.1011Z" fill="#EFEFEF"/>
<path d="M141.904 23.9554C141.904 21.2164 143.359 19.4812 145.622 19.4812C146.182 19.4563 146.737 19.586 147.223 19.8553C147.71 20.1246 148.107 20.5223 148.368 21.002H148.5V16.2412H150.268V28.2931H148.574V26.9236H148.434C148.153 27.4001 147.742 27.7928 147.246 28.0594C146.75 28.326 146.189 28.4562 145.622 28.436C143.344 28.4361 141.904 26.7009 141.904 23.9554ZM143.73 23.9554C143.73 25.7939 144.626 26.9002 146.123 26.9002C147.613 26.9002 148.533 25.7779 148.533 23.9629C148.533 22.1563 147.603 21.018 146.123 21.018C144.635 21.018 143.73 22.1319 143.73 23.9554H143.73Z" fill="#EFEFEF"/>
<path d="M157.581 23.9554C157.524 23.3857 157.592 22.811 157.778 22.268C157.965 21.725 158.267 21.2258 158.664 20.8023C159.062 20.3788 159.547 20.0405 160.087 19.809C160.628 19.5774 161.213 19.4578 161.804 19.4578C162.395 19.4578 162.98 19.5774 163.521 19.809C164.061 20.0405 164.546 20.3788 164.944 20.8023C165.341 21.2258 165.643 21.725 165.83 22.268C166.016 22.811 166.084 23.3857 166.028 23.9554C166.085 24.5256 166.018 25.1011 165.832 25.645C165.646 26.1888 165.344 26.689 164.947 27.1133C164.549 27.5376 164.064 27.8766 163.523 28.1087C162.981 28.3407 162.396 28.4606 161.804 28.4606C161.212 28.4606 160.627 28.3407 160.085 28.1087C159.544 27.8766 159.059 27.5376 158.661 27.1133C158.264 26.689 157.962 26.1888 157.776 25.645C157.59 25.1011 157.523 24.5256 157.581 23.9554ZM164.21 23.9554C164.21 22.0764 163.337 20.9776 161.807 20.9776C160.271 20.9776 159.406 22.0764 159.406 23.9554C159.406 25.8494 160.271 26.9397 161.807 26.9397C163.337 26.9397 164.21 25.8418 164.21 23.9554Z" fill="#EFEFEF"/>
<path d="M168.398 19.625H170.1V21.002H170.232C170.456 20.5075 170.834 20.0929 171.313 19.816C171.792 19.5392 172.348 19.414 172.905 19.4577C173.34 19.426 173.778 19.4896 174.185 19.6438C174.592 19.798 174.958 20.0388 175.255 20.3484C175.553 20.658 175.775 21.0285 175.905 21.4324C176.034 21.8363 176.068 22.2633 176.004 22.6817V28.2931H174.237V23.1113C174.237 21.7183 173.612 21.0255 172.304 21.0255C172.009 21.0122 171.713 21.0609 171.439 21.1684C171.164 21.2759 170.917 21.4396 170.714 21.6482C170.51 21.8568 170.356 22.1055 170.262 22.3772C170.167 22.6489 170.135 22.9371 170.166 23.2222V28.2932H168.398V19.625Z" fill="#EFEFEF"/>
<path d="M185.992 17.4669V19.6645H187.932V21.1055H185.992V25.5627C185.992 26.4706 186.378 26.8682 187.258 26.8682C187.484 26.8675 187.709 26.8543 187.932 26.8287V28.2537C187.615 28.3087 187.293 28.3379 186.971 28.3411C185.005 28.3411 184.223 27.6719 184.223 26.0007V21.1054H182.801V19.6644H184.223V17.4669H185.992Z" fill="#EFEFEF"/>
<path d="M190.346 16.2412H192.098V21.018H192.237C192.472 20.5188 192.861 20.1019 193.349 19.824C193.838 19.5461 194.403 19.4209 194.968 19.4652C195.402 19.4424 195.835 19.5125 196.237 19.6704C196.64 19.8283 197.001 20.0702 197.296 20.3789C197.59 20.6875 197.811 21.0553 197.942 21.456C198.073 21.8566 198.11 22.2803 198.053 22.6968V28.2932H196.283V23.1188C196.283 21.7342 195.617 21.033 194.368 21.033C194.064 21.0089 193.759 21.0493 193.473 21.1515C193.187 21.2536 192.928 21.415 192.713 21.6243C192.498 21.8336 192.333 22.0858 192.229 22.3633C192.126 22.6407 192.086 22.9368 192.113 23.2306V28.2931H190.346L190.346 16.2412Z" fill="#EFEFEF"/>
<path d="M208.359 25.9527C208.119 26.7449 207.598 27.4302 206.889 27.8886C206.179 28.3471 205.326 28.5495 204.478 28.4605C203.888 28.4755 203.302 28.3662 202.76 28.1399C202.218 27.9137 201.733 27.576 201.339 27.1503C200.946 26.7246 200.653 26.2211 200.48 25.6748C200.308 25.1284 200.26 24.5523 200.341 23.9864C200.262 23.4187 200.311 22.8413 200.483 22.2933C200.655 21.7454 200.946 21.2395 201.338 20.8101C201.729 20.3807 202.212 20.0377 202.752 19.8044C203.293 19.5711 203.878 19.4528 204.47 19.4577C206.962 19.4577 208.465 21.1055 208.465 23.8275V24.4244H202.141V24.5203C202.114 24.8384 202.155 25.1585 202.263 25.4603C202.37 25.762 202.542 26.0387 202.767 26.2725C202.991 26.5063 203.264 26.6921 203.567 26.818C203.87 26.9439 204.197 27.0071 204.527 27.0035C204.949 27.0526 205.378 26.979 205.757 26.7918C206.136 26.6047 206.45 26.3126 206.657 25.9527L208.359 25.9527ZM202.141 23.1592H206.665C206.687 22.8683 206.646 22.5761 206.545 22.3013C206.444 22.0266 206.284 21.7754 206.076 21.564C205.869 21.3525 205.618 21.1854 205.34 21.0734C205.061 20.9614 204.762 20.907 204.46 20.9137C204.155 20.91 203.851 20.9655 203.568 21.0771C203.285 21.1886 203.028 21.3539 202.812 21.5632C202.596 21.7724 202.425 22.0215 202.31 22.2956C202.195 22.5697 202.137 22.8633 202.141 23.1592H202.141Z" fill="#EFEFEF"/>
</g>
<defs>
<clipPath id="clip0_67_1255">
<rect width="238" height="77" fill="white"/>
</clipPath>
</defs>
</svg>
