<svg width="134" height="44" viewBox="0 0 134 44" fill="none" xmlns="http://www.w3.org/2000/svg">
<rect x="0.5" y="0.5" width="133" height="43" rx="6.5" fill="#20201F"/>
<rect x="0.5" y="0.5" width="133" height="43" rx="6.5" stroke="#EFEFEF"/>
<path d="M91.0381 21.121V23.6411H89.4345V25.2938H91.0381V30.9093C91.0381 32.8268 91.9187 33.5938 94.134 33.5938C94.5233 33.5938 94.8941 33.5481 95.2185 33.4933V31.8589C94.9404 31.8863 94.7643 31.9046 94.4584 31.9046C93.4666 31.9046 93.031 31.448 93.031 30.4071V25.2938H95.2185V23.6411H93.031V21.121H91.0381Z" fill="#EFEFEF"/>
<path d="M100.862 33.7307C103.81 33.7307 105.617 31.7859 105.617 28.5627C105.617 25.3577 103.8 23.4037 100.862 23.4037C97.9144 23.4037 96.0976 25.3577 96.0976 28.5627C96.0976 31.7859 97.9051 33.7307 100.862 33.7307ZM100.862 31.9867C99.1286 31.9867 98.1554 30.7358 98.1554 28.5627C98.1554 26.4078 99.1286 25.1477 100.862 25.1477C102.586 25.1477 103.569 26.4078 103.569 28.5627C103.569 30.7267 102.586 31.9867 100.862 31.9867Z" fill="#EFEFEF"/>
<path d="M107.164 33.539H109.156V27.6678C109.156 26.2708 110.222 25.3303 111.733 25.3303C112.086 25.3303 112.679 25.3943 112.846 25.449V23.5133C112.632 23.4585 112.252 23.4311 111.956 23.4311C110.64 23.4311 109.518 24.1433 109.231 25.1203H109.082V23.5955H107.164V33.539Z" fill="#EFEFEF"/>
<path d="M117.794 25.0747C119.268 25.0747 120.232 26.0882 120.278 27.6496H115.18C115.291 26.0973 116.32 25.0747 117.794 25.0747ZM120.269 30.8545C119.898 31.6306 119.073 32.0598 117.868 32.0598C116.274 32.0598 115.245 30.955 115.18 29.211V29.1014H122.308V28.4166C122.308 25.2938 120.612 23.4037 117.803 23.4037C114.957 23.4037 113.15 25.4217 113.15 28.5992C113.15 31.7767 114.92 33.7307 117.812 33.7307C120.12 33.7307 121.733 32.635 122.187 30.8545H120.269Z" fill="#EFEFEF"/>
<path d="M77.9691 29.867C78.1228 32.3087 80.1884 33.8702 83.2627 33.8702C86.5484 33.8702 88.6043 32.233 88.6043 29.6209C88.6043 27.5673 87.4323 26.4316 84.5885 25.7786L83.0609 25.4095C81.2548 24.9931 80.5246 24.4347 80.5246 23.46C80.5246 22.2297 81.6583 21.4252 83.3588 21.4252C84.9728 21.4252 86.0872 22.2107 86.289 23.4694H88.3834C88.2585 21.1697 86.2025 19.5514 83.3876 19.5514C80.3613 19.5514 78.3438 21.1697 78.3438 23.6019C78.3438 25.6083 79.487 26.8007 81.9945 27.378L83.7815 27.8039C85.6165 28.2298 86.4235 28.8544 86.4235 29.8954C86.4235 31.1068 85.1553 31.9869 83.426 31.9869C81.5718 31.9869 80.2845 31.1636 80.1019 29.867H77.9691Z" fill="#EFEFEF"/>
<path d="M57.3249 23.4311C55.9531 23.4311 54.7666 24.1068 54.1548 25.239H54.0065V23.5955H52.0878V36.8444H54.0807V32.0324H54.2383C54.7666 33.0824 55.9067 33.7033 57.3435 33.7033C59.8925 33.7033 61.5146 31.7219 61.5146 28.5627C61.5146 25.4034 59.8925 23.4311 57.3249 23.4311ZM56.7595 31.9411C55.091 31.9411 54.0436 30.6445 54.0436 28.5718C54.0436 26.49 55.091 25.1934 56.7688 25.1934C58.4558 25.1934 59.4661 26.4626 59.4661 28.5627C59.4661 30.6719 58.4558 31.9411 56.7595 31.9411Z" fill="#EFEFEF"/>
<path d="M68.488 23.4311C67.1162 23.4311 65.9297 24.1068 65.3179 25.239H65.1696V23.5955H63.2509V36.8444H65.2438V32.0324H65.4014C65.9297 33.0824 67.0698 33.7033 68.5065 33.7033C71.0556 33.7033 72.6777 31.7219 72.6777 28.5627C72.6777 25.4034 71.0556 23.4311 68.488 23.4311ZM67.9226 31.9411C66.2541 31.9411 65.2067 30.6445 65.2067 28.5718C65.2067 26.49 66.2541 25.1934 67.9318 25.1934C69.6188 25.1934 70.6292 26.4626 70.6292 28.5627C70.6292 30.6719 69.6188 31.9411 67.9226 31.9411Z" fill="#EFEFEF"/>
<path d="M48.5122 33.539H50.7988L45.7934 19.8826H43.478L38.4727 33.539H40.6823L41.9601 29.9143H47.2441L48.5122 33.539ZM44.5252 22.3622H44.6886L46.6965 28.1351H42.5077L44.5252 22.3622Z" fill="#EFEFEF"/>
<path d="M39.8105 9.58208V16.17H42.2252C44.2181 16.17 45.3721 14.9602 45.3721 12.8555C45.3721 10.7828 44.2088 9.58208 42.2252 9.58208H39.8105ZM40.8487 10.5134H42.1093C43.4951 10.5134 44.3154 11.3809 44.3154 12.8692C44.3154 14.3803 43.509 15.2386 42.1093 15.2386H40.8487V10.5134Z" fill="#EFEFEF"/>
<path d="M48.9064 16.2659C50.3802 16.2659 51.284 15.2934 51.284 13.6818C51.284 12.0794 50.3756 11.1024 48.9064 11.1024C47.4326 11.1024 46.5242 12.0794 46.5242 13.6818C46.5242 15.2934 47.428 16.2659 48.9064 16.2659ZM48.9064 15.3939C48.0397 15.3939 47.5531 14.7684 47.5531 13.6818C47.5531 12.6044 48.0397 11.9744 48.9064 11.9744C49.7685 11.9744 50.2597 12.6044 50.2597 13.6818C50.2597 14.7638 49.7685 15.3939 48.9064 15.3939Z" fill="#EFEFEF"/>
<path d="M58.9802 11.1982H57.9838L57.0846 14.9921H57.0058L55.9677 11.1982H55.013L53.9748 14.9921H53.9007L52.9969 11.1982H51.9866L53.377 16.17H54.4012L55.4394 12.5085H55.5181L56.5609 16.17H57.5944L58.9802 11.1982Z" fill="#EFEFEF"/>
<path d="M60.1277 16.17H61.1242V13.2618C61.1242 12.4857 61.5923 12.0018 62.3292 12.0018C63.0661 12.0018 63.4183 12.3989 63.4183 13.1979V16.17H64.4147V12.9514C64.4147 11.7689 63.7937 11.1024 62.6675 11.1024C61.9074 11.1024 61.4069 11.4356 61.1612 11.9881H61.0871V11.1982H60.1277V16.17Z" fill="#EFEFEF"/>
<path d="M65.984 16.17H66.9804V9.25793H65.984V16.17Z" fill="#EFEFEF"/>
<path d="M70.728 16.2659C72.2018 16.2659 73.1055 15.2934 73.1055 13.6818C73.1055 12.0794 72.1972 11.1024 70.728 11.1024C69.2542 11.1024 68.3458 12.0794 68.3458 13.6818C68.3458 15.2934 69.2495 16.2659 70.728 16.2659ZM70.728 15.3939C69.8613 15.3939 69.3747 14.7684 69.3747 13.6818C69.3747 12.6044 69.8613 11.9744 70.728 11.9744C71.59 11.9744 72.0813 12.6044 72.0813 13.6818C72.0813 14.7638 71.59 15.3939 70.728 15.3939Z" fill="#EFEFEF"/>
<path d="M76.0745 15.4258C75.5322 15.4258 75.1383 15.1656 75.1383 14.7182C75.1383 14.2799 75.4534 14.0471 76.1486 14.0014L77.3814 13.9238V14.3393C77.3814 14.9556 76.8253 15.4258 76.0745 15.4258ZM75.8196 16.2522C76.4823 16.2522 77.0338 15.9691 77.3351 15.4715H77.4139V16.17H78.3732V12.7733C78.3732 11.7233 77.6595 11.1024 76.3942 11.1024C75.2495 11.1024 74.4338 11.6502 74.3318 12.504H75.2958C75.4071 12.1524 75.7917 11.9515 76.3479 11.9515C77.0292 11.9515 77.3814 12.2483 77.3814 12.7733V13.2025L76.0142 13.2801C74.8138 13.3531 74.1372 13.869 74.1372 14.7638C74.1372 15.6724 74.8463 16.2522 75.8196 16.2522Z" fill="#EFEFEF"/>
<path d="M81.7546 16.2522C82.4498 16.2522 83.0384 15.928 83.3397 15.3847H83.4184V16.17H84.3732V9.25793H83.3767V11.9881H83.3026C83.0291 11.4402 82.4452 11.1161 81.7546 11.1161C80.4801 11.1161 79.6598 12.1113 79.6598 13.6818C79.6598 15.2569 80.4708 16.2522 81.7546 16.2522ZM82.0373 11.9972C82.8716 11.9972 83.3953 12.65 83.3953 13.6864C83.3953 14.7273 82.8762 15.371 82.0373 15.371C81.1938 15.371 80.6887 14.7364 80.6887 13.6818C80.6887 12.6364 81.1985 11.9972 82.0373 11.9972Z" fill="#EFEFEF"/>
<path d="M90.8347 16.2659C92.3085 16.2659 93.2123 15.2934 93.2123 13.6818C93.2123 12.0794 92.3039 11.1024 90.8347 11.1024C89.3609 11.1024 88.4526 12.0794 88.4526 13.6818C88.4526 15.2934 89.3563 16.2659 90.8347 16.2659ZM90.8347 15.3939C89.9681 15.3939 89.4814 14.7684 89.4814 13.6818C89.4814 12.6044 89.9681 11.9744 90.8347 11.9744C91.6968 11.9744 92.188 12.6044 92.188 13.6818C92.188 14.7638 91.6968 15.3939 90.8347 15.3939Z" fill="#EFEFEF"/>
<path d="M94.5313 16.17H95.5277V13.2618C95.5277 12.4857 95.9958 12.0018 96.7327 12.0018C97.4696 12.0018 97.8219 12.3989 97.8219 13.1979V16.17H98.8183V12.9514C98.8183 11.7689 98.1973 11.1024 97.0711 11.1024C96.311 11.1024 95.8105 11.4356 95.5648 11.9881H95.4907V11.1982H94.5313V16.17Z" fill="#EFEFEF"/>
<path d="M103.407 9.96101V11.2211H102.606V12.0474H103.407V14.8552C103.407 15.8139 103.848 16.1974 104.955 16.1974C105.15 16.1974 105.335 16.1746 105.498 16.1472V15.33C105.359 15.3437 105.271 15.3528 105.118 15.3528C104.622 15.3528 104.404 15.1245 104.404 14.6041V12.0474H105.498V11.2211H104.404V9.96101H103.407Z" fill="#EFEFEF"/>
<path d="M106.835 16.17H107.832V13.2664C107.832 12.5131 108.286 12.0063 109.102 12.0063C109.806 12.0063 110.181 12.4081 110.181 13.2025V16.17H111.178V12.9605C111.178 11.7781 110.515 11.1069 109.44 11.1069C108.68 11.1069 108.147 11.4402 107.901 11.9972H107.822V9.25793H106.835V16.17Z" fill="#EFEFEF"/>
<path d="M114.772 11.9378C115.509 11.9378 115.991 12.4446 116.015 13.2253H113.466C113.521 12.4492 114.036 11.9378 114.772 11.9378ZM116.01 14.8278C115.825 15.2158 115.412 15.4304 114.81 15.4304C114.012 15.4304 113.498 14.878 113.466 14.006V13.9512H117.03V13.6088C117.03 12.0474 116.181 11.1024 114.777 11.1024C113.354 11.1024 112.451 12.1113 112.451 13.7001C112.451 15.2889 113.336 16.2659 114.782 16.2659C115.936 16.2659 116.742 15.718 116.969 14.8278H116.01Z" fill="#EFEFEF"/>
<path d="M27.6584 22.3309C27.6826 20.4818 28.6907 18.7322 30.2899 17.7637C29.281 16.3443 27.5912 15.4444 25.8331 15.3902C23.958 15.1963 22.1401 16.4955 21.1846 16.4955C20.2105 16.4955 18.7393 15.4095 17.1551 15.4416C15.0901 15.5073 13.165 16.6638 12.1603 18.4422C10.0007 22.1255 11.6116 27.5386 13.6803 30.5159C14.7153 31.9738 15.925 33.6023 17.5078 33.5445C19.0567 33.4813 19.6352 32.5716 21.5048 32.5716C23.3571 32.5716 23.8998 33.5445 25.5148 33.5078C27.1768 33.4813 28.224 32.0435 29.2227 30.5718C29.9664 29.533 30.5386 28.3849 30.9182 27.17C28.9651 26.3562 27.6607 24.42 27.6584 22.3309Z" fill="#EFEFEF"/>
<path d="M24.6081 13.4322C25.5143 12.3606 25.9607 10.9832 25.8526 9.59253C24.4681 9.73577 23.1893 10.3876 22.2708 11.4181C21.3727 12.425 20.9053 13.7781 20.9937 15.1156C22.3787 15.1297 23.7402 14.4955 24.6081 13.4322Z" fill="#EFEFEF"/>
</svg>
