<svg width="151" height="44" viewBox="0 0 151 44" fill="none" xmlns="http://www.w3.org/2000/svg">
<rect x="0.5" y="0.5" width="150" height="43" rx="4.5" fill="#20201F"/>
<rect x="0.5" y="0.5" width="150" height="43" rx="4.5" stroke="#EFEFEF"/>
<path d="M76.2114 23.9262C73.5806 23.9262 71.4364 25.8941 71.4364 28.6045C71.4364 31.2984 73.5806 33.2828 76.2114 33.2828C78.8433 33.2828 80.9875 31.2984 80.9875 28.6045C80.9863 25.8941 78.8421 23.9262 76.2114 23.9262ZM76.2114 31.4414C74.7696 31.4414 73.5269 30.2721 73.5269 28.6056C73.5269 26.9215 74.7707 25.7698 76.2114 25.7698C77.6532 25.7698 78.8958 26.9215 78.8958 28.6056C78.8958 30.271 77.6532 31.4414 76.2114 31.4414ZM65.7935 23.9262C63.1628 23.9262 61.0186 25.8941 61.0186 28.6045C61.0186 31.2984 63.1628 33.2828 65.7935 33.2828C68.4254 33.2828 70.5696 31.2984 70.5696 28.6045C70.5696 25.8941 68.4254 23.9262 65.7935 23.9262ZM65.7935 31.4414C64.3517 31.4414 63.1091 30.2721 63.1091 28.6056C63.1091 26.9215 64.3529 25.7698 65.7935 25.7698C67.2353 25.7698 68.478 26.9215 68.478 28.6056C68.4791 30.271 67.2353 31.4414 65.7935 31.4414ZM53.4026 25.3628V27.3472H58.2323C58.088 28.4637 57.71 29.2788 57.1328 29.8453C56.4304 30.5361 55.3309 31.2984 53.4026 31.2984C50.4295 31.2984 48.1053 28.9411 48.1053 26.0173C48.1053 23.0935 50.4295 20.7362 53.4026 20.7362C55.0065 20.7362 56.1776 21.3566 57.0422 22.1541L58.4661 20.7538C57.2581 19.6197 55.6553 18.7518 53.4026 18.7518C49.33 18.7518 45.9062 22.0122 45.9062 26.0173C45.9062 30.0224 49.33 33.2828 53.4026 33.2828C55.6004 33.2828 57.2592 32.5733 58.5556 31.2445C59.8889 29.9333 60.3038 28.0897 60.3038 26.6014C60.3038 26.1416 60.268 25.7159 60.1953 25.3617H53.4026V25.3628ZM104.08 26.9039C103.684 25.8589 102.476 23.9262 100.008 23.9262C97.5572 23.9262 95.5204 25.8226 95.5204 28.6045C95.5204 31.2269 97.5393 33.2828 100.242 33.2828C102.422 33.2828 103.683 31.9716 104.207 31.2093L102.585 30.1456C102.045 30.9255 101.305 31.4392 100.242 31.4392C99.1791 31.4392 98.4218 30.9607 97.9353 30.0213L104.296 27.4341L104.08 26.9039ZM97.593 28.4637C97.5393 26.6553 99.0169 25.7346 100.081 25.7346C100.909 25.7346 101.612 26.1427 101.847 26.7268L97.593 28.4637ZM92.4221 33.0001H94.5115V19.249H92.4221V33.0001ZM88.9972 24.9723H88.9256C88.4569 24.4223 87.5554 23.9262 86.4212 23.9262C84.0421 23.9262 81.8621 25.9821 81.8621 28.6232C81.8621 31.2456 84.0421 33.2839 86.4212 33.2839C87.5565 33.2839 88.4569 32.7878 88.9256 32.2213H88.9972V32.8945C88.9972 34.6842 88.0241 35.6412 86.457 35.6412C85.1774 35.6412 84.3844 34.7381 84.06 33.9758L82.2402 34.7205C82.7626 35.9602 84.1495 37.4848 86.457 37.4848C88.9077 37.4848 90.9803 36.0669 90.9803 32.6107V24.2111H88.9983V24.9723H88.9972ZM86.6013 31.4414C85.1595 31.4414 83.9527 30.2534 83.9527 28.6232C83.9527 26.9743 85.1595 25.7698 86.6013 25.7698C88.0241 25.7698 89.1415 26.9743 89.1415 28.6232C89.1415 30.2534 88.0241 31.4414 86.6013 31.4414ZM113.872 19.249H108.871V33.0001H110.957V27.7905H113.871C116.184 27.7905 118.459 26.1438 118.459 23.5203C118.459 20.8968 116.185 19.249 113.872 19.249ZM113.926 25.8765H110.957V21.163H113.926C115.486 21.163 116.372 22.4335 116.372 23.5203C116.372 24.5851 115.486 25.8765 113.926 25.8765ZM126.824 23.902C125.313 23.902 123.748 24.5565 123.101 26.0074L124.953 26.7675C125.349 26.0074 126.087 25.7588 126.86 25.7588C127.94 25.7588 129.037 26.3957 129.055 27.5276V27.6695C128.677 27.4572 127.867 27.1393 126.878 27.1393C124.881 27.1393 122.848 28.2184 122.848 30.2347C122.848 32.075 124.486 33.2597 126.32 33.2597C127.723 33.2597 128.497 32.6404 128.982 31.9144H129.054V32.9759H131.069V27.7036C131.07 25.2638 129.216 23.902 126.824 23.902ZM126.572 31.4381C125.889 31.4381 124.935 31.1015 124.935 30.2699C124.935 29.2084 126.123 28.8014 127.149 28.8014C128.065 28.8014 128.498 28.9961 129.055 29.2612C128.892 30.5361 127.777 31.4381 126.572 31.4381ZM138.409 24.2023L136.016 30.1643H135.945L133.462 24.2023H131.213L134.937 32.5348L132.814 37.1702H134.991L140.73 24.2023H138.409ZM119.611 33.0001H121.697V19.249H119.611V33.0001Z" fill="#EFEFEF"/>
<path d="M53.0388 11.2673C53.0388 12.1891 52.7614 12.9228 52.2055 13.4706C51.5747 14.1218 50.7515 14.4474 49.7403 14.4474C48.7717 14.4474 47.9473 14.1174 47.2706 13.4574C46.5928 12.7963 46.2539 11.9779 46.2539 11.0011C46.2539 10.0232 46.5928 9.20476 47.2706 8.54476C47.9473 7.88366 48.7717 7.55366 49.7403 7.55366C50.2213 7.55366 50.681 7.64606 51.1172 7.82976C51.5546 8.01456 51.9047 8.25986 52.1664 8.56676L51.5769 9.14756C51.1329 8.62506 50.5211 8.36436 49.7392 8.36436C49.0323 8.36436 48.4216 8.60856 47.906 9.09696C47.3903 9.58536 47.1331 10.2201 47.1331 11C47.1331 11.7799 47.3903 12.4146 47.906 12.903C48.4216 13.3914 49.0323 13.6356 49.7392 13.6356C50.4886 13.6356 51.1139 13.3903 51.6138 12.8986C51.9382 12.5785 52.1261 12.133 52.1765 11.5621H49.7392V10.769H52.9907C53.0243 10.9417 53.0388 11.1078 53.0388 11.2673Z" fill="#EFEFEF"/>
<path d="M58.1953 8.51072H55.1395V10.6029H57.8955V11.396H55.1395V13.4882H58.1953V14.3H54.2771V7.70002H58.1953V8.51072Z" fill="#EFEFEF"/>
<path d="M61.8315 14.3H60.9691V8.51072H59.0945V7.70002H63.7061V8.51072H61.8315V14.3Z" fill="#EFEFEF"/>
<path d="M67.0426 14.3V7.70002H67.905V14.3H67.0426Z" fill="#EFEFEF"/>
<path d="M71.7294 14.3H70.867V8.51072H68.9924V7.70002H73.604V8.51072H71.7294V14.3Z" fill="#EFEFEF"/>
<path d="M82.3338 13.4475C81.6739 14.1141 80.854 14.4474 79.8731 14.4474C78.8921 14.4474 78.0723 14.1141 77.4135 13.4475C76.7535 12.7809 76.4247 11.9647 76.4247 11C76.4247 10.0353 76.7535 9.21911 77.4135 8.55251C78.0723 7.88591 78.8921 7.55151 79.8731 7.55151C80.8484 7.55151 81.6672 7.88701 82.3293 8.55691C82.9915 9.22681 83.3226 10.0408 83.3226 11C83.3226 11.9647 82.9926 12.7809 82.3338 13.4475ZM78.0499 12.8942C78.5465 13.3892 79.1539 13.6356 79.8731 13.6356C80.5923 13.6356 81.2008 13.3881 81.6963 12.8942C82.1929 12.3992 82.4423 11.7678 82.4423 11C82.4423 10.2322 82.1929 9.60081 81.6963 9.10581C81.2008 8.61081 80.5923 8.36441 79.8731 8.36441C79.1539 8.36441 78.5465 8.61191 78.0499 9.10581C77.5544 9.60081 77.305 10.2322 77.305 11C77.305 11.7678 77.5544 12.3992 78.0499 12.8942Z" fill="#EFEFEF"/>
<path d="M84.5328 14.3V7.70002H85.582L88.8436 12.8337H88.8805L88.8436 11.5621V7.70002H89.706V14.3H88.8056L85.393 8.91663H85.3561L85.393 10.1882V14.3H84.5328Z" fill="#EFEFEF"/>
<path d="M53.0388 11.2673C53.0388 12.1891 52.7614 12.9228 52.2055 13.4706C51.5747 14.1218 50.7515 14.4474 49.7403 14.4474C48.7717 14.4474 47.9473 14.1174 47.2706 13.4574C46.5928 12.7963 46.2539 11.9779 46.2539 11.0011C46.2539 10.0232 46.5928 9.20476 47.2706 8.54476C47.9473 7.88366 48.7717 7.55366 49.7403 7.55366C50.2213 7.55366 50.681 7.64606 51.1172 7.82976C51.5546 8.01456 51.9047 8.25986 52.1664 8.56676L51.5769 9.14756C51.1329 8.62506 50.5211 8.36436 49.7392 8.36436C49.0323 8.36436 48.4216 8.60856 47.906 9.09696C47.3903 9.58536 47.1331 10.2201 47.1331 11C47.1331 11.7799 47.3903 12.4146 47.906 12.903C48.4216 13.3914 49.0323 13.6356 49.7392 13.6356C50.4886 13.6356 51.1139 13.3903 51.6138 12.8986C51.9382 12.5785 52.1261 12.133 52.1765 11.5621H49.7392V10.769H52.9907C53.0243 10.9417 53.0388 11.1078 53.0388 11.2673Z" stroke="#EFEFEF" stroke-width="0.2" stroke-miterlimit="10"/>
<path d="M58.1953 8.51072H55.1395V10.6029H57.8955V11.396H55.1395V13.4882H58.1953V14.3H54.2771V7.70002H58.1953V8.51072Z" stroke="#EFEFEF" stroke-width="0.2" stroke-miterlimit="10"/>
<path d="M61.8315 14.3H60.9691V8.51072H59.0945V7.70002H63.7061V8.51072H61.8315V14.3Z" stroke="#EFEFEF" stroke-width="0.2" stroke-miterlimit="10"/>
<path d="M67.0426 14.3V7.70002H67.905V14.3H67.0426Z" stroke="#EFEFEF" stroke-width="0.2" stroke-miterlimit="10"/>
<path d="M71.7294 14.3H70.867V8.51072H68.9924V7.70002H73.604V8.51072H71.7294V14.3Z" stroke="#EFEFEF" stroke-width="0.2" stroke-miterlimit="10"/>
<path d="M82.3338 13.4475C81.6739 14.1141 80.854 14.4474 79.8731 14.4474C78.8921 14.4474 78.0723 14.1141 77.4135 13.4475C76.7535 12.7809 76.4247 11.9647 76.4247 11C76.4247 10.0353 76.7535 9.21911 77.4135 8.55251C78.0723 7.88591 78.8921 7.55151 79.8731 7.55151C80.8484 7.55151 81.6672 7.88701 82.3293 8.55691C82.9915 9.22681 83.3226 10.0408 83.3226 11C83.3226 11.9647 82.9926 12.7809 82.3338 13.4475ZM78.0499 12.8942C78.5465 13.3892 79.1539 13.6356 79.8731 13.6356C80.5923 13.6356 81.2008 13.3881 81.6963 12.8942C82.1929 12.3992 82.4423 11.7678 82.4423 11C82.4423 10.2322 82.1929 9.60081 81.6963 9.10581C81.2008 8.61081 80.5923 8.36441 79.8731 8.36441C79.1539 8.36441 78.5465 8.61191 78.0499 9.10581C77.5544 9.60081 77.305 10.2322 77.305 11C77.305 11.7678 77.5544 12.3992 78.0499 12.8942Z" stroke="#EFEFEF" stroke-width="0.2" stroke-miterlimit="10"/>
<path d="M84.5328 14.3V7.70002H85.582L88.8436 12.8337H88.8805L88.8436 11.5621V7.70002H89.706V14.3H88.8056L85.393 8.91663H85.3561L85.393 10.1882V14.3H84.5328Z" stroke="#EFEFEF" stroke-width="0.2" stroke-miterlimit="10"/>
<path fill-rule="evenodd" clip-rule="evenodd" d="M14.3703 7.85364C14.9781 7.85364 15.546 8.01908 16.0327 8.30574L28.9691 15.6838L23.2586 21.2986L11.5364 9.77304L11.459 9.69687C11.9773 8.62548 13.0957 7.85364 14.3703 7.85364ZM11.16 10.8053C11.1549 10.8757 11.1523 10.9466 11.1523 11.0179V32.9822C11.1523 33.0535 11.1549 33.1243 11.16 33.1947L22.5455 21.9999L11.16 10.8053ZM11.459 34.3031C11.9774 35.3745 13.096 36.1464 14.3703 36.1464C14.965 36.1464 15.5233 35.9883 16.0022 35.7107L16.0402 35.6888L28.9913 28.3376L23.2586 22.7011L11.5365 34.2269L11.459 34.3031ZM29.8956 27.8244L35.1988 24.8143C36.208 24.2785 36.8931 23.2322 36.8931 22.0256C36.8931 20.8277 36.2172 19.7865 35.218 19.249L35.2066 19.2413L29.8718 16.1986L23.9718 21.9998L29.8956 27.8244Z" fill="#EFEFEF"/>
</svg>
