<svg width="260" height="77" viewBox="0 0 260 77" fill="none" xmlns="http://www.w3.org/2000/svg">
<g clip-path="url(#clip0_67_1290)">
<path d="M250.37 0H9.62963C4.31133 0 0 4.30926 0 9.625V67.375C0 72.6907 4.31133 77 9.62963 77H250.37C255.689 77 260 72.6907 260 67.375V9.625C260 4.30926 255.689 0 250.37 0Z" fill="black"/>
<path d="M250.37 1.54C252.516 1.54 254.573 2.39181 256.09 3.90804C257.607 5.42427 258.459 7.48072 258.459 9.625V67.375C258.459 69.5193 257.607 71.5757 256.09 73.092C254.573 74.6082 252.516 75.46 250.37 75.46H9.62963C7.48432 75.46 5.42688 74.6082 3.90992 73.092C2.39296 71.5757 1.54074 69.5193 1.54074 67.375V9.625C1.54074 7.48072 2.39296 5.42427 3.90992 3.90804C5.42688 2.39181 7.48432 1.54 9.62963 1.54H250.37ZM250.37 0H9.62963C7.07569 0 4.62636 1.01406 2.82045 2.8191C1.01455 4.62414 0 7.07229 0 9.625L0 67.375C0 69.9277 1.01455 72.3759 2.82045 74.1809C4.62636 75.9859 7.07569 77 9.62963 77H250.37C252.924 77 255.374 75.9859 257.18 74.1809C258.985 72.3759 260 69.9277 260 67.375V9.625C260 7.07229 258.985 4.62414 257.18 2.8191C255.374 1.01406 252.924 0 250.37 0V0Z" fill="#636362"/>
<path d="M91.3276 19.712C91.3592 20.4179 91.2475 21.123 90.9993 21.7846C90.7511 22.4463 90.3714 23.0509 89.8831 23.562C89.3368 24.1276 88.6766 24.571 87.9463 24.863C87.216 25.155 86.432 25.2889 85.6461 25.256C84.8549 25.2637 84.07 25.1136 83.3375 24.8145C82.605 24.5154 81.9395 24.0733 81.38 23.5141C80.8205 22.9548 80.3781 22.2897 80.0789 21.5575C79.7797 20.8253 79.6295 20.0409 79.6372 19.25C79.6269 18.4575 79.7752 17.671 80.0733 16.9366C80.3713 16.2022 80.8133 15.5347 81.373 14.9734C81.9328 14.4121 82.5992 13.9683 83.333 13.668C84.0668 13.3677 84.8532 13.217 85.6461 13.2248C86.4698 13.2135 87.2877 13.364 88.0535 13.6675C88.7867 13.9334 89.4466 14.3688 89.9794 14.938L88.9202 16.016C88.5442 15.5721 88.0693 15.2227 87.5335 14.9958C86.9598 14.7568 86.3447 14.6325 85.7231 14.63C85.1291 14.6185 84.539 14.7287 83.9891 14.9539C83.4393 15.179 82.9414 15.5143 82.5261 15.939C82.0847 16.3688 81.7357 16.8841 81.5006 17.4535C81.2654 18.0228 81.1491 18.6341 81.1587 19.25C81.1391 19.8604 81.2433 20.4684 81.465 21.0374C81.6868 21.6065 82.0215 22.1247 82.4491 22.561C82.8644 22.9857 83.3623 23.321 83.9121 23.5461C84.4619 23.7713 85.0521 23.8815 85.6461 23.87C86.717 23.9254 87.7694 23.5748 88.5928 22.8883C88.9792 22.5555 89.2957 22.1493 89.5238 21.6932C89.752 21.2372 89.8872 20.7404 89.9217 20.2318H85.6461V18.8457H91.2506C91.2936 19.1327 91.3194 19.422 91.3276 19.712Z" fill="#EFEFEF" stroke="#EFEFEF" stroke-width="0.2" stroke-miterlimit="10"/>
<path d="M100.148 13.475V14.8995H94.9475V18.557H99.6853V19.943H94.9475V23.6005H100.148V25.025H93.4453V13.475H100.148Z" fill="#EFEFEF" stroke="#EFEFEF" stroke-width="0.2" stroke-miterlimit="10"/>
<path d="M106.465 14.8995V25.025H104.982V14.8995H101.746V13.475H109.777V14.8995H106.465Z" fill="#EFEFEF" stroke="#EFEFEF" stroke-width="0.2" stroke-miterlimit="10"/>
<path d="M116.922 25.025H115.439V13.475H116.922V25.025Z" fill="#EFEFEF" stroke="#EFEFEF" stroke-width="0.2" stroke-miterlimit="10"/>
<path d="M123.51 14.8995V25.025H122.027V14.8995H118.791V13.475H126.726V14.8995H123.51Z" fill="#EFEFEF" stroke="#EFEFEF" stroke-width="0.2" stroke-miterlimit="10"/>
<path d="M143.463 19.25C143.491 20.0436 143.355 20.8343 143.063 21.5729C142.772 22.3116 142.331 22.9821 141.768 23.5428C140.637 24.6526 139.116 25.2744 137.531 25.2744C135.946 25.2744 134.425 24.6526 133.294 23.5428C132.732 22.9821 132.291 22.3116 131.999 21.5729C131.707 20.8343 131.571 20.0436 131.599 19.25C131.571 18.4565 131.707 17.6657 131.999 16.9271C132.291 16.1885 132.732 15.5179 133.294 14.9573C134.422 13.8428 135.945 13.2178 137.531 13.2178C139.117 13.2178 140.64 13.8428 141.768 14.9573C142.331 15.5179 142.772 16.1885 143.063 16.9271C143.355 17.6657 143.491 18.4565 143.463 19.25ZM133.101 19.25C133.082 19.8588 133.184 20.4653 133.402 21.034C133.62 21.6027 133.95 22.1219 134.373 22.561C134.78 22.9856 135.271 23.3212 135.815 23.5465C136.358 23.7718 136.943 23.8819 137.531 23.87C138.104 23.8733 138.672 23.7588 139.198 23.5336C139.725 23.3084 140.2 22.9773 140.593 22.561C141.038 22.1333 141.388 21.6184 141.624 21.0485C141.859 20.4787 141.974 19.8663 141.961 19.25C141.974 18.6337 141.859 18.0213 141.624 17.4515C141.388 16.8816 141.038 16.3667 140.593 15.939C140.191 15.513 139.704 15.1764 139.163 14.9508C138.622 14.7253 138.04 14.616 137.454 14.63C136.866 14.6181 136.281 14.7282 135.738 14.9535C135.194 15.1789 134.703 15.5144 134.296 15.939C133.887 16.3844 133.571 16.9064 133.366 17.4748C133.161 18.0432 133.071 18.6466 133.101 19.25Z" fill="#EFEFEF" stroke="#EFEFEF" stroke-width="0.2" stroke-miterlimit="10"/>
<path d="M147.026 25.025H145.543V13.475H147.353L152.977 22.4647V20.2317V13.475H154.46V25.025H152.919L147.026 15.6117V17.8255V25.025Z" fill="#EFEFEF" stroke="#EFEFEF" stroke-width="0.2" stroke-miterlimit="10"/>
<path d="M131.233 41.8688C129.61 41.8726 128.025 42.3572 126.678 43.2615C125.331 44.1657 124.283 45.4489 123.665 46.9488C123.048 48.4487 122.889 50.098 123.209 51.6879C123.53 53.2779 124.314 54.7373 125.465 55.8815C126.615 57.0256 128.078 57.8032 129.671 58.1159C131.263 58.4286 132.912 58.2623 134.41 57.6381C135.908 57.0139 137.186 55.9599 138.085 54.6092C138.983 53.2585 139.461 51.6719 139.457 50.05C139.472 48.968 139.27 47.894 138.862 46.8917C138.454 45.8895 137.848 44.9796 137.081 44.2163C136.313 43.4529 135.4 42.8517 134.396 42.4484C133.391 42.0451 132.315 41.848 131.233 41.8688ZM131.233 55.0165C130.238 55.086 129.246 54.8549 128.385 54.3531C127.523 53.8514 126.833 53.1022 126.403 52.203C125.973 51.3038 125.824 50.2962 125.975 49.3111C126.125 48.326 126.569 47.4091 127.248 46.6794C127.927 45.9497 128.81 45.4412 129.782 45.2197C130.755 44.9983 131.771 45.0743 132.699 45.4379C133.627 45.8014 134.425 46.4357 134.988 47.2582C135.551 48.0807 135.853 49.0535 135.855 50.05C135.886 50.6814 135.791 51.3127 135.574 51.9065C135.357 52.5004 135.023 53.0448 134.592 53.5076C134.161 53.9705 133.642 54.3425 133.065 54.6016C132.488 54.8608 131.865 55.0018 131.233 55.0165ZM113.283 41.8688C111.661 41.8726 110.076 42.3572 108.729 43.2615C107.381 44.1657 106.333 45.4489 105.715 46.9488C105.098 48.4487 104.939 50.098 105.26 51.6879C105.58 53.2779 106.365 54.7373 107.515 55.8815C108.665 57.0256 110.129 57.8032 111.721 58.1159C113.313 58.4286 114.962 58.2623 116.46 57.6381C117.958 57.0139 119.237 55.9599 120.135 54.6092C121.033 53.2585 121.511 51.6719 121.507 50.05C121.523 48.968 121.321 47.894 120.912 46.8917C120.504 45.8895 119.898 44.9796 119.131 44.2163C118.364 43.4529 117.451 42.8517 116.446 42.4484C115.441 42.0451 114.366 41.848 113.283 41.8688ZM113.283 55.0165C112.289 55.086 111.296 54.8549 110.435 54.3531C109.574 53.8514 108.883 53.1022 108.453 52.203C108.023 51.3038 107.874 50.2962 108.025 49.3111C108.176 48.326 108.62 47.4091 109.299 46.6794C109.978 45.9497 110.861 45.4412 111.833 45.2197C112.805 44.9983 113.821 45.0743 114.749 45.4379C115.678 45.8014 116.475 46.4357 117.038 47.2582C117.601 48.0807 117.903 49.0535 117.906 50.05C117.937 50.6814 117.841 51.3127 117.624 51.9065C117.407 52.5004 117.073 53.0448 116.643 53.5076C116.212 53.9705 115.693 54.3425 115.116 54.6016C114.539 54.8608 113.916 55.0018 113.283 55.0165ZM91.9442 44.3905V47.8555H100.264C100.134 49.4875 99.455 51.0275 98.3383 52.2253C97.5037 53.0752 96.4999 53.7405 95.3918 54.1782C94.2837 54.6159 93.0961 54.8162 91.9057 54.7663C89.4539 54.7663 87.1025 53.7928 85.3689 52.0599C83.6352 50.3271 82.6612 47.9769 82.6612 45.5262C82.6612 43.0756 83.6352 40.7254 85.3689 38.9926C87.1025 37.2597 89.4539 36.2863 91.9057 36.2863C94.2562 36.2513 96.5258 37.1435 98.2227 38.7695L100.669 36.3248C99.5208 35.19 98.1578 34.2956 96.6597 33.694C95.1616 33.0924 93.5585 32.7957 91.9442 32.8212C90.232 32.7546 88.524 33.0342 86.9226 33.6432C85.3211 34.2521 83.8591 35.178 82.6242 36.3652C81.3892 37.5524 80.4068 38.9766 79.7357 40.5524C79.0647 42.1282 78.7188 43.8232 78.7188 45.5359C78.7188 47.2485 79.0647 48.9435 79.7357 50.5193C80.4068 52.0951 81.3892 53.5193 82.6242 54.7066C83.8591 55.8938 85.3211 56.8196 86.9226 57.4286C88.524 58.0375 90.232 58.3171 91.9442 58.2505C93.5917 58.3163 95.2344 58.033 96.7646 57.4192C98.2948 56.8054 99.6777 55.8751 100.823 54.6893C102.845 52.4686 103.923 49.5479 103.827 46.5465C103.834 45.8241 103.776 45.1025 103.654 44.3905H91.9442ZM179.208 47.0855C178.706 45.6085 177.766 44.3189 176.514 43.3873C175.263 42.4557 173.757 41.9262 172.198 41.8688C171.144 41.8667 170.101 42.0806 169.134 42.4973C168.166 42.914 167.295 43.5246 166.573 44.2914C165.851 45.0582 165.294 45.9649 164.936 46.9553C164.578 47.9458 164.428 48.9991 164.494 50.05C164.477 51.8072 165.03 53.5226 166.069 54.94C167.109 56.3574 168.579 57.4006 170.261 57.9139C171.942 58.4272 173.745 58.383 175.399 57.7879C177.053 57.1929 178.47 56.0788 179.439 54.6123L176.646 52.6873C176.23 53.3808 175.64 53.9535 174.934 54.3486C174.228 54.7436 173.43 54.9474 172.621 54.9395C171.786 54.974 170.961 54.7552 170.253 54.312C169.545 53.8688 168.987 53.2219 168.654 52.4563L179.612 47.9325L179.208 47.0855ZM168.038 49.819C167.998 49.2211 168.079 48.6213 168.275 48.055C168.471 47.4886 168.778 46.9669 169.177 46.5206C169.577 46.0742 170.062 45.7121 170.604 45.4554C171.146 45.1987 171.733 45.0526 172.332 45.0257C172.953 44.9879 173.571 45.1339 174.109 45.4455C174.647 45.7571 175.08 46.2205 175.356 46.7775L168.038 49.819ZM159.14 57.75H162.741V33.6875H159.14V57.75ZM153.246 43.6975H153.112C152.565 43.1026 151.897 42.6316 151.153 42.3161C150.409 42.0007 149.606 41.8481 148.798 41.8688C146.693 41.9708 144.708 42.8783 143.255 44.4032C141.801 45.9281 140.99 47.9535 140.99 50.0596C140.99 52.1658 141.801 54.1912 143.255 55.7161C144.708 57.241 146.693 58.1485 148.798 58.2505C149.614 58.2669 150.424 58.1028 151.17 57.7701C151.916 57.4373 152.579 56.944 153.112 56.3255H153.246V57.4998C153.246 60.6375 151.571 62.3123 148.875 62.3123C147.974 62.2925 147.099 62.0056 146.362 61.4881C145.625 60.9705 145.058 60.2456 144.734 59.4055L141.614 60.6953C142.191 62.1433 143.194 63.3823 144.49 64.2485C145.786 65.1147 147.315 65.5672 148.875 65.5463C153.092 65.5463 156.578 63.063 156.578 57.0185V42.35H153.246V43.6975ZM149.106 55.0165C147.844 54.9379 146.659 54.3814 145.794 53.4605C144.928 52.5395 144.446 51.3233 144.446 50.0596C144.446 48.7959 144.928 47.5798 145.794 46.6588C146.659 45.7379 147.844 45.1814 149.106 45.1028C149.722 45.1294 150.328 45.2797 150.885 45.5448C151.442 45.8099 151.941 46.1844 152.35 46.646C152.76 47.1075 153.073 47.6468 153.27 48.2316C153.467 48.8164 153.544 49.4348 153.497 50.05C153.549 50.6673 153.476 51.2889 153.281 51.8771C153.087 52.4653 152.775 53.008 152.364 53.4722C151.954 53.9365 151.453 54.3127 150.893 54.5781C150.333 54.8436 149.725 54.9927 149.106 55.0165ZM196.079 33.6875H187.451V57.75H191.052V48.6255H196.079C197.105 48.6992 198.136 48.5608 199.107 48.2188C200.077 47.8768 200.967 47.3387 201.72 46.6379C202.473 45.9372 203.074 45.0888 203.485 44.1457C203.896 43.2026 204.108 42.1851 204.108 41.1565C204.108 40.1279 203.896 39.1104 203.485 38.1673C203.074 37.2242 202.473 36.3758 201.72 35.6751C200.967 34.9743 200.077 34.4362 199.107 34.0942C198.136 33.7522 197.105 33.6138 196.079 33.6875ZM196.079 45.2375H191.052V37.037H196.156C197.249 37.037 198.297 37.471 199.07 38.2436C199.843 39.0161 200.278 40.0639 200.278 41.1565C200.278 42.2491 199.843 43.2969 199.07 44.0694C198.297 44.842 197.249 45.276 196.156 45.276L196.079 45.2375ZM218.304 41.7917C216.993 41.7109 215.686 42.0161 214.546 42.6696C213.406 43.3231 212.483 44.2961 211.891 45.4685L215.069 46.7968C215.39 46.2181 215.872 45.7448 216.456 45.4339C217.04 45.123 217.702 44.988 218.362 45.045C218.819 44.9916 219.282 45.0298 219.725 45.1573C220.167 45.2848 220.579 45.499 220.938 45.7875C221.297 46.076 221.594 46.433 221.813 46.8376C222.032 47.2422 222.168 47.6864 222.214 48.1443V48.3752C221.056 47.7668 219.767 47.4496 218.458 47.4513C215.03 47.4513 211.525 49.3762 211.525 52.8797C211.559 53.6244 211.742 54.3547 212.064 55.0272C212.386 55.6997 212.839 56.3007 213.398 56.7945C213.957 57.2883 214.609 57.6648 215.316 57.9017C216.023 58.1386 216.771 58.231 217.515 58.1735C218.418 58.2235 219.319 58.0323 220.125 57.6196C220.93 57.2069 221.611 56.5876 222.098 55.825H222.214V57.75H225.68V48.4908C225.68 44.275 222.483 41.8302 218.381 41.8302L218.304 41.7917ZM217.861 54.978C216.686 54.978 215.049 54.3813 215.049 52.9375C215.049 51.0125 217.091 50.358 218.901 50.358C220.045 50.3298 221.176 50.609 222.175 51.1665C222.054 52.2119 221.558 53.1781 220.779 53.886C220 54.5939 218.991 54.9955 217.938 55.0165L217.861 54.978ZM238.315 42.35L234.193 52.7835H234.078L229.802 42.35H225.95L232.363 56.9415L228.704 65.0458H232.556L242.32 42.35H238.315ZM205.959 57.75H209.541V33.6875H205.959V57.75Z" fill="#EFEFEF"/>
<path d="M39.9056 37.3835L19.3945 59.136C19.6186 59.9587 20.0289 60.719 20.5937 61.358C21.1585 61.9971 21.8627 62.4978 22.6519 62.8215C23.4411 63.1452 24.2943 63.2833 25.1454 63.225C25.9965 63.1668 26.8228 62.9137 27.5605 62.4855L50.6716 49.1645L39.9056 37.3835Z" fill="#EA4335"/>
<path d="M60.6481 33.6875L50.6718 27.9125L39.4629 37.9032L50.7103 49.1645L60.6288 43.3895C61.5105 42.9175 62.2475 42.2153 62.7614 41.3576C63.2752 40.4999 63.5466 39.5189 63.5466 38.5192C63.5466 37.5196 63.2752 36.5386 62.7614 35.6809C62.2475 34.8232 61.5105 34.121 60.6288 33.649L60.6481 33.6875Z" fill="#FBBC04"/>
<path d="M19.3946 17.864C19.2928 18.3187 19.2475 18.7842 19.2598 19.25V57.75C19.2632 58.2311 19.3279 58.7098 19.4524 59.1745L40.6376 37.9995L19.3946 17.864Z" fill="#4285F4"/>
<path d="M40.0589 38.5L50.6708 27.8932L27.5596 14.5337C26.6914 14.0179 25.7001 13.7452 24.69 13.7445C23.4716 13.748 22.288 14.151 21.3208 14.8917C20.3536 15.6324 19.6563 16.6698 19.3359 17.8448L40.0589 38.5Z" fill="#34A853"/>
</g>
<defs>
<clipPath id="clip0_67_1290">
<rect width="260" height="77" fill="white"/>
</clipPath>
</defs>
</svg>
